<svg width="41" height="27" viewBox="0 0 41 27" fill="none" xmlns="http://www.w3.org/2000/svg">
<g clip-path="url(#clip0_189_2445)">
<path d="M39 0H2C0.89543 0 0 0.89543 0 2V24.4C0 25.5046 0.89543 26.4 2 26.4H39C40.1046 26.4 41 25.5046 41 24.4V2C41 0.89543 40.1046 0 39 0Z" fill="#0072CE"/>
<path d="M35.14 15.253H33.585C33.429 15.253 33.326 15.259 33.24 15.317C33.15 15.375 33.115 15.46 33.115 15.573C33.115 15.707 33.191 15.799 33.301 15.838C33.391 15.869 33.488 15.878 33.631 15.878L34.092 15.891C34.559 15.902 34.87 15.982 35.06 16.177C35.095 16.204 35.115 16.235 35.14 16.265V15.253ZM35.14 17.599C34.932 17.901 34.528 18.054 33.982 18.054H32.335V17.291H33.975C34.138 17.291 34.252 17.27 34.32 17.203C34.3522 17.1736 34.3778 17.1377 34.3952 17.0977C34.4126 17.0578 34.4214 17.0146 34.421 16.971C34.4227 16.9265 34.4142 16.8821 34.3962 16.8414C34.3782 16.8007 34.3511 16.7646 34.317 16.736C34.255 16.681 34.165 16.656 34.017 16.656C33.216 16.629 32.217 16.681 32.217 15.556C32.217 15.039 32.545 14.496 33.44 14.496H35.14V13.788H33.56C33.084 13.788 32.738 13.901 32.493 14.078V13.788H30.158C29.785 13.788 29.347 13.88 29.139 14.078V13.788H24.969V14.078C24.638 13.84 24.078 13.788 23.819 13.788H21.069V14.078C20.807 13.825 20.223 13.788 19.867 13.788H16.79L16.086 14.548L15.426 13.788H10.828V18.753H15.34L16.065 17.981L16.749 18.753L19.53 18.756V17.587H19.803C20.173 17.593 20.607 17.578 20.991 17.413V18.753H23.285V17.459H23.395C23.537 17.459 23.551 17.465 23.551 17.605V18.753H30.518C30.961 18.753 31.423 18.64 31.679 18.435V18.753H33.889C34.349 18.753 34.799 18.689 35.14 18.524V17.599ZM31.737 16.177C31.903 16.349 31.992 16.565 31.992 16.931C31.992 17.697 31.512 18.054 30.652 18.054H28.991V17.291H30.645C30.807 17.291 30.922 17.27 30.994 17.203C31.0257 17.1733 31.051 17.1374 31.0682 17.0974C31.0855 17.0575 31.0942 17.0144 31.094 16.971C31.0948 16.9266 31.0859 16.8826 31.0679 16.842C31.05 16.8014 31.0234 16.7652 30.99 16.736C30.925 16.681 30.835 16.656 30.687 16.656C29.889 16.629 28.89 16.681 28.89 15.556C28.89 15.039 29.215 14.496 30.11 14.496H31.82V15.253H30.255C30.1 15.253 29.999 15.259 29.913 15.317C29.82 15.375 29.785 15.46 29.785 15.573C29.785 15.708 29.865 15.799 29.972 15.838C30.062 15.87 30.158 15.878 30.304 15.878L30.763 15.891C31.226 15.902 31.543 15.982 31.737 16.177ZM24.04 15.957C23.926 16.025 23.785 16.031 23.62 16.031H22.583V15.231H23.633C23.785 15.231 23.937 15.235 24.04 15.296C24.15 15.354 24.217 15.464 24.217 15.616C24.2203 15.6835 24.2057 15.7508 24.1746 15.8108C24.1435 15.8709 24.097 15.9217 24.04 15.958V15.957ZM24.555 16.4C24.745 16.47 24.9 16.596 24.973 16.7C25.093 16.873 25.111 17.035 25.115 17.349V18.054H24.258V17.609C24.258 17.395 24.278 17.078 24.12 16.912C23.996 16.785 23.806 16.754 23.495 16.754H22.583V18.054H21.726V14.496H23.696C24.127 14.496 24.442 14.515 24.721 14.664C24.991 14.826 25.16 15.048 25.16 15.454C25.16 16.022 24.78 16.312 24.555 16.4ZM25.633 14.496H28.48V15.232H26.482V15.878H28.431V16.605H26.482V17.313L28.48 17.316V18.054H25.633V14.496ZM19.878 16.138H18.776V15.232H19.888C20.196 15.232 20.41 15.357 20.41 15.668C20.41 15.976 20.206 16.138 19.878 16.138ZM17.926 17.731L16.616 16.281L17.926 14.877V17.731ZM14.544 17.313H12.447V16.605H14.32V15.878H12.447V15.232H14.586L15.519 16.269L14.544 17.313ZM21.325 15.668C21.325 16.656 20.585 16.861 19.84 16.861H18.776V18.054H17.118L16.068 16.876L14.976 18.054H11.598V14.496H15.028L16.078 15.662L17.163 14.496H19.888C20.565 14.496 21.325 14.682 21.325 15.668ZM7.52797 10.395L6.94397 8.97597L6.36397 10.395H7.52797ZM20.39 9.82997C20.273 9.89997 20.134 9.90297 19.968 9.90297H18.932V9.11297H19.982C20.131 9.11297 20.286 9.11997 20.387 9.17697C20.497 9.22897 20.566 9.33897 20.566 9.49197C20.566 9.64697 20.501 9.77197 20.39 9.82997ZM27.782 10.395L27.192 8.97597L26.605 10.395H27.782ZM14.002 11.93H13.128L13.124 9.14297L11.888 11.93H11.138L9.89897 9.13997V11.929H8.16497L7.83697 11.135H6.05997L5.72997 11.929H4.80297L6.32997 8.37197H7.59697L9.04797 11.741V8.37197H10.44L11.556 10.786L12.582 8.37197H14.002V11.93ZM17.487 11.93H14.637V8.37197H17.487V9.11297H15.491V9.75397H17.439V10.484H15.491V11.194H17.487V11.93ZM21.505 9.32997C21.505 9.89697 21.125 10.19 20.904 10.279C21.09 10.349 21.25 10.474 21.325 10.579C21.445 10.755 21.467 10.913 21.467 11.231V11.93H20.607L20.603 11.481C20.603 11.267 20.623 10.959 20.468 10.788C20.344 10.663 20.154 10.636 19.847 10.636H18.931V11.93H18.078V8.37197H20.04C20.476 8.37197 20.797 8.38397 21.073 8.54197C21.343 8.70197 21.505 8.93297 21.505 9.32997ZM22.87 11.93H22V8.37197H22.87V11.93ZM32.966 11.93H31.758L30.14 9.25997V11.93H28.403L28.071 11.136H26.3L25.978 11.93H24.98C24.565 11.93 24.04 11.838 23.743 11.536C23.443 11.234 23.287 10.826 23.287 10.178C23.287 9.64997 23.381 9.16797 23.747 8.78697C24.023 8.50297 24.455 8.37197 25.043 8.37197H25.868V9.13397H25.06C24.749 9.13397 24.573 9.18097 24.404 9.34497C24.258 9.49497 24.158 9.77797 24.158 10.151C24.158 10.532 24.234 10.807 24.393 10.987C24.524 11.127 24.763 11.17 24.987 11.17H25.37L26.573 8.37197H27.851L29.295 11.737V8.37197H30.593L32.093 10.85V8.37197H32.966V11.93ZM4.79297 12.629H6.24997L6.57897 11.839H7.31397L7.64197 12.629H10.51V12.024L10.766 12.631H12.254L12.51 12.015V12.629H19.636L19.633 11.331H19.771C19.867 11.335 19.895 11.344 19.895 11.503V12.629H23.581V12.327C23.878 12.485 24.341 12.629 24.949 12.629H26.499L26.832 11.839H27.567L27.892 12.629H30.88V11.878L31.332 12.628H33.727V7.66797H31.357V8.25397L31.025 7.66797H28.594V8.25397L28.289 7.66797H25.005C24.455 7.66797 23.971 7.74397 23.581 7.95797V7.66797H21.315V7.95797C21.066 7.73797 20.728 7.66797 20.351 7.66797H12.071L11.515 8.94897L10.945 7.66797H8.33597V8.25397L8.04997 7.66797H5.82597L4.79297 10.027V12.63V12.629Z" fill="white"/>
</g>
<defs>
<clipPath id="clip0_189_2445">
<rect width="41" height="26.4" fill="white"/>
</clipPath>
</defs>
</svg>
