<svg width="42" height="27" viewBox="0 0 42 27" fill="none" xmlns="http://www.w3.org/2000/svg">
<g clip-path="url(#clip0_189_2448)">
<path d="M39.36 0H2C0.89543 0 0 0.89543 0 2V24.266C0 25.3706 0.89543 26.266 2 26.266H39.36C40.4646 26.266 41.36 25.3706 41.36 24.266V2C41.36 0.89543 40.4646 0 39.36 0Z" fill="black"/>
<path d="M11.4172 23.8747V22.3887C11.4286 22.2644 11.4129 22.1391 11.3713 22.0215C11.3296 21.9039 11.263 21.7966 11.1759 21.7072C11.0889 21.6178 10.9835 21.5483 10.867 21.5035C10.7506 21.4587 10.6258 21.4396 10.5012 21.4477C10.3369 21.441 10.1735 21.4761 10.0263 21.5495C9.87906 21.6229 9.7528 21.7324 9.65922 21.8677C9.57801 21.7319 9.46116 21.621 9.32137 21.5469C9.18157 21.4729 9.02416 21.4386 8.86622 21.4477C8.72728 21.4416 8.58898 21.47 8.46369 21.5303C8.3384 21.5907 8.23002 21.6812 8.14822 21.7937V21.4967H7.67822V23.8747H8.14822V22.5127C8.13852 22.4311 8.14702 22.3483 8.17313 22.2704C8.19923 22.1925 8.24228 22.1213 8.29918 22.062C8.35608 22.0027 8.42541 21.9568 8.50219 21.9275C8.57897 21.8982 8.66129 21.8863 8.74322 21.8927C9.08922 21.8927 9.28822 22.1157 9.28822 22.5127V23.8747H9.75822V22.5127C9.74817 22.4311 9.75639 22.3483 9.78231 22.2703C9.80822 22.1923 9.85116 22.121 9.90803 22.0616C9.96489 22.0023 10.0343 21.9563 10.1111 21.9271C10.1879 21.8979 10.2703 21.8861 10.3522 21.8927C10.6992 21.8927 10.8972 22.1157 10.8972 22.5127V23.8747H11.4172ZM19.1442 21.5217H18.2782V20.8037H17.8072V21.5217H17.3122V21.9427H17.8072V23.0567C17.8072 23.6017 18.0052 23.9237 18.6002 23.9237C18.8255 23.9193 19.0462 23.86 19.2432 23.7507L19.0952 23.3297C18.9616 23.4132 18.8067 23.4563 18.6492 23.4537C18.5971 23.458 18.5446 23.4505 18.4958 23.4317C18.4469 23.4129 18.403 23.3833 18.3672 23.3451C18.3314 23.3069 18.3048 23.2612 18.2892 23.2112C18.2736 23.1613 18.2695 23.1084 18.2772 23.0567V21.9177H19.1442V21.5217ZM23.5532 21.4477C23.4252 21.4449 23.2986 21.4754 23.1857 21.536C23.0729 21.5966 22.9776 21.6854 22.9092 21.7937V21.4967H22.4392V23.8747H22.9092V22.5367C22.9092 22.1407 23.1072 21.8927 23.4292 21.8927C23.5382 21.8977 23.6462 21.9137 23.7512 21.9427L23.8992 21.4967C23.786 21.4679 23.67 21.4522 23.5532 21.4477ZM16.8912 21.6947C16.6011 21.5176 16.2647 21.4316 15.9252 21.4477C15.3302 21.4477 14.9592 21.7197 14.9592 22.1907C14.9592 22.5867 15.2312 22.8097 15.7512 22.8837L15.9992 22.9087C16.2722 22.9587 16.4452 23.0577 16.4452 23.1807C16.4452 23.3547 16.2472 23.4787 15.8752 23.4787C15.5913 23.4845 15.3132 23.3974 15.0832 23.2307L14.8352 23.6017C15.1362 23.8017 15.4902 23.9047 15.8512 23.8997C16.5442 23.8997 16.9162 23.5777 16.9162 23.1317C16.9162 22.6857 16.6182 22.5117 16.0982 22.4377L15.8512 22.4137C15.6282 22.3887 15.4302 22.3137 15.4302 22.1657C15.4302 22.0167 15.6282 21.8687 15.9002 21.8687C16.1602 21.8797 16.4132 21.9477 16.6432 22.0667L16.8912 21.6947ZM24.0982 22.6857C24.088 22.8509 24.113 23.0164 24.1716 23.1713C24.2302 23.3261 24.321 23.4667 24.4381 23.5838C24.5552 23.7009 24.6958 23.7917 24.8506 23.8503C25.0055 23.9089 25.171 23.9339 25.3362 23.9237C25.6412 23.9397 25.9412 23.8437 26.1782 23.6517L25.9302 23.2797C25.7553 23.4223 25.5369 23.501 25.3112 23.5027C25.1119 23.4868 24.9259 23.3965 24.7902 23.2496C24.6546 23.1027 24.5792 22.9101 24.5792 22.7102C24.5792 22.5102 24.6546 22.3176 24.7902 22.1707C24.9259 22.0239 25.1119 21.9335 25.3112 21.9177C25.5373 21.919 25.7561 21.9977 25.9312 22.1407L26.1782 21.7697C25.9408 21.578 25.6409 21.4808 25.3362 21.4967C25.1732 21.4772 25.0079 21.4942 24.8522 21.5464C24.6965 21.5985 24.5544 21.6846 24.4359 21.7983C24.3175 21.912 24.2258 22.0506 24.1674 22.204C24.109 22.3575 24.0854 22.522 24.0982 22.6857ZM20.7542 21.4477C20.0612 21.4477 19.5902 21.9427 19.5902 22.6857C19.5797 22.8489 19.6036 23.0126 19.6606 23.166C19.7175 23.3194 19.8062 23.459 19.9207 23.5758C20.0353 23.6926 20.1731 23.784 20.3254 23.8439C20.4776 23.9039 20.6408 23.931 20.8042 23.9237C21.1542 23.9317 21.4942 23.8177 21.7702 23.6017L21.5222 23.2557C21.323 23.4097 21.0799 23.4962 20.8282 23.5027C20.6525 23.5093 20.4807 23.4491 20.3475 23.3343C20.2143 23.2195 20.1296 23.0585 20.1102 22.8837H21.8692V22.6857C21.8692 21.9427 21.4232 21.4477 20.7542 21.4477ZM20.7542 21.8927C20.8345 21.889 20.9147 21.9017 20.9899 21.93C21.0652 21.9583 21.1338 22.0016 21.1918 22.0572C21.2498 22.1128 21.2959 22.1797 21.3272 22.2537C21.3586 22.3277 21.3746 22.4073 21.3742 22.4877H20.0852C20.096 22.3202 20.1725 22.1638 20.2979 22.0524C20.4234 21.941 20.5867 21.8836 20.7542 21.8927ZM14.3402 22.6857V21.4967H13.8702V21.7937C13.7794 21.6783 13.6621 21.5866 13.5282 21.5263C13.3943 21.4661 13.2478 21.4391 13.1012 21.4477C12.7729 21.4477 12.458 21.5781 12.2258 21.8103C11.9937 22.0424 11.8632 22.3573 11.8632 22.6857C11.8632 23.014 11.9937 23.3289 12.2258 23.5611C12.458 23.7932 12.7729 23.9237 13.1012 23.9237C13.2476 23.932 13.3939 23.9049 13.5276 23.8446C13.6613 23.7844 13.7785 23.6928 13.8692 23.5777V23.8747H14.3392V22.6857H14.3402ZM12.4082 22.6857C12.4178 22.5412 12.4693 22.4026 12.5566 22.2871C12.6438 22.1715 12.7629 22.0839 12.8992 22.0351C13.0355 21.9863 13.1831 21.9784 13.3239 22.0124C13.4647 22.0464 13.5924 22.1207 13.6915 22.2263C13.7905 22.3319 13.8566 22.4642 13.8815 22.6068C13.9064 22.7494 13.8891 22.8962 13.8317 23.0292C13.7744 23.1621 13.6794 23.2754 13.5585 23.3551C13.4376 23.4347 13.296 23.4773 13.1512 23.4777C13.0487 23.4802 12.9469 23.461 12.8523 23.4214C12.7577 23.3818 12.6726 23.3227 12.6024 23.248C12.5323 23.1732 12.4787 23.0845 12.4453 22.9876C12.4118 22.8907 12.3992 22.7878 12.4082 22.6857ZM30.7102 21.4477C30.5822 21.4449 30.4556 21.4754 30.3427 21.536C30.2299 21.5966 30.1346 21.6854 30.0662 21.7937V21.4967H29.5962V23.8747H30.0662V22.5367C30.0662 22.1407 30.2642 21.8927 30.5862 21.8927C30.6962 21.8977 30.8032 21.9137 30.9082 21.9427L31.0572 21.4967C30.9436 21.4679 30.8273 21.4521 30.7102 21.4477ZM28.8782 22.6857V21.4967H28.4072V21.7937C28.3165 21.6784 28.1993 21.5868 28.0656 21.5266C27.9319 21.4663 27.7856 21.4393 27.6392 21.4477C27.3109 21.4477 26.996 21.5781 26.7638 21.8103C26.5317 22.0424 26.4012 22.3573 26.4012 22.6857C26.4012 23.014 26.5317 23.3289 26.7638 23.5611C26.996 23.7932 27.3109 23.9237 27.6392 23.9237C27.7856 23.932 27.9319 23.9049 28.0656 23.8446C28.1993 23.7844 28.3165 23.6928 28.4072 23.5777V23.8747H28.8772L28.8782 22.6857ZM26.9712 22.6857C26.9808 22.5412 27.0323 22.4026 27.1196 22.2871C27.2068 22.1715 27.3259 22.0839 27.4622 22.0351C27.5985 21.9863 27.7461 21.9784 27.8869 22.0124C28.0277 22.0464 28.1554 22.1207 28.2545 22.2263C28.3535 22.3319 28.4196 22.4642 28.4445 22.6068C28.4694 22.7494 28.4521 22.8962 28.3947 23.0292C28.3374 23.1621 28.2424 23.2754 28.1215 23.3551C28.0006 23.4347 27.859 23.4773 27.7142 23.4777C27.2432 23.5027 26.9712 23.1317 26.9712 22.6857ZM33.6822 22.6857V20.5557H33.2122V21.7937C33.1215 21.6784 33.0043 21.5868 32.8706 21.5266C32.7369 21.4663 32.5906 21.4393 32.4442 21.4477C32.1159 21.4477 31.801 21.5781 31.5688 21.8103C31.3367 22.0424 31.2062 22.3573 31.2062 22.6857C31.2062 23.014 31.3367 23.3289 31.5688 23.5611C31.801 23.7932 32.1159 23.9237 32.4442 23.9237C32.5905 23.9318 32.7365 23.9046 32.87 23.8444C33.0035 23.7842 33.1206 23.6927 33.2112 23.5777V23.8747H33.6812L33.6822 22.6857ZM31.7502 22.6857C31.7598 22.5412 31.8113 22.4026 31.8986 22.2871C31.9858 22.1715 32.1049 22.0839 32.2412 22.0351C32.3775 21.9863 32.5251 21.9784 32.6659 22.0124C32.8067 22.0464 32.9344 22.1207 33.0335 22.2263C33.1325 22.3319 33.1986 22.4642 33.2235 22.6068C33.2484 22.7494 33.2311 22.8962 33.1737 23.0292C33.1164 23.1621 33.0214 23.2754 32.9005 23.3551C32.7796 23.4347 32.638 23.4773 32.4932 23.4777C32.3907 23.4802 32.2889 23.461 32.1943 23.4214C32.0997 23.3818 32.0146 23.3227 31.9444 23.248C31.8743 23.1732 31.8207 23.0845 31.7873 22.9876C31.7538 22.8907 31.7412 22.7878 31.7502 22.6857Z" fill="white"/>
<path d="M16.5439 3.49219H25.1379V17.5102H16.5439V3.49219Z" fill="#FF5F00"/>
<path d="M17.4352 10.501C17.4355 9.15242 17.741 7.82145 18.3285 6.60767C18.9161 5.39388 19.7706 4.32873 20.8282 3.49195C19.7104 2.61311 18.3986 2.01435 17.0024 1.74563C15.6061 1.47691 14.1658 1.54603 12.8017 1.94722C11.4376 2.3484 10.1892 3.07002 9.16074 4.05185C8.13227 5.03368 7.35352 6.24726 6.8895 7.5913C6.42548 8.93534 6.28964 10.3709 6.49331 11.7781C6.69698 13.1853 7.23426 14.5234 8.06031 15.6807C8.88636 16.8381 9.97723 17.7811 11.2419 18.431C12.5065 19.0809 13.9083 19.419 15.3302 19.417C17.3253 19.4184 19.2624 18.7464 20.8282 17.51C19.7705 16.6731 18.9159 15.6078 18.3283 14.3938C17.7407 13.1798 17.4354 11.8486 17.4352 10.5V10.501Z" fill="#EB001B"/>
<path d="M35.267 10.5007C35.2651 12.1715 34.7938 13.8082 33.9068 15.2241C33.0197 16.6401 31.7526 17.7783 30.25 18.5089C28.7474 19.2396 27.0697 19.5333 25.4083 19.3567C23.7468 19.18 22.1684 18.54 20.853 17.5097C21.9108 16.6731 22.7655 15.608 23.3531 14.3942C23.9407 13.1804 24.2459 11.8493 24.2459 10.5007C24.2459 9.1521 23.9407 7.82101 23.3531 6.60717C22.7655 5.39333 21.9108 4.32823 20.853 3.49169C22.1684 2.46137 23.7468 1.82139 25.4083 1.64472C27.0697 1.46804 28.7474 1.76178 30.25 2.49245C31.7526 3.22311 33.0197 4.3613 33.9068 5.77723C34.7938 7.19315 35.2651 8.82985 35.267 10.5007Z" fill="#F79E1B"/>
</g>
<defs>
<clipPath id="clip0_189_2448">
<rect width="41.36" height="26.266" fill="white"/>
</clipPath>
</defs>
</svg>
