<svg width="41" height="27" viewBox="0 0 41 27" fill="none" xmlns="http://www.w3.org/2000/svg">
<g clip-path="url(#clip0_189_2441)">
<path d="M39 0H2C0.89543 0 0 0.89543 0 2V24.4C0 25.5046 0.89543 26.4 2 26.4H39C40.1046 26.4 41 25.5046 41 24.4V2C41 0.89543 40.1046 0 39 0Z" fill="#26337A"/>
<path d="M16.2561 17.4004L17.6081 9.00838H19.7711L18.4201 17.4004H16.2561ZM26.2621 9.21438C25.6437 8.97828 24.9869 8.85893 24.3251 8.86238C22.1871 8.86238 20.6821 10.0024 20.6691 11.6324C20.6551 12.8384 21.7421 13.5124 22.5621 13.9124C23.4051 14.3224 23.6881 14.5864 23.6841 14.9524C23.6791 15.5154 23.012 15.7724 22.39 15.7724C21.5251 15.7724 21.0651 15.6464 20.3541 15.3324L20.0761 15.1994L19.7731 17.0774C20.2781 17.3104 21.2131 17.5134 22.1831 17.5244C24.4551 17.5244 25.9311 16.3994 25.9491 14.6574C25.9561 13.7014 25.3791 12.9774 24.1311 12.3774C23.3761 11.9874 22.9111 11.7304 22.9171 11.3374C22.9171 10.9874 23.3091 10.6144 24.1571 10.6144C24.7131 10.6028 25.2649 10.7126 25.7741 10.9364L25.9691 11.0324L26.2611 9.21238L26.2621 9.21438ZM29.1421 14.4254C29.3221 13.9434 30.0021 12.0794 30.0021 12.0794C29.9921 12.0994 30.182 11.5924 30.292 11.2794L30.437 12.0014C30.437 12.0014 30.8521 14.0054 30.937 14.4244H29.1421V14.4254ZM31.8101 9.01738H30.14C29.62 9.01738 29.232 9.16538 29.0051 9.71238L25.7951 17.4044H28.0651C28.0651 17.4044 28.4351 16.3694 28.5201 16.1424L31.2901 16.1464C31.354 16.4394 31.5531 17.4044 31.5531 17.4044H33.5601L31.8101 9.01738ZM14.4401 9.01538L12.3251 14.7374L12.0981 13.5744C11.7041 12.2344 10.4761 10.7814 9.10205 10.0544L11.0391 17.3944L13.3261 17.3924L16.7321 9.01538H14.4401Z" fill="white"/>
<path d="M10.3602 9.00979H6.87224L6.84424 9.18279C9.55724 9.87779 11.3542 11.5568 12.0982 13.5728L11.3402 9.71679C11.2102 9.18679 10.8302 9.02679 10.3602 9.00879" fill="#ED982D"/>
</g>
<defs>
<clipPath id="clip0_189_2441">
<rect width="41" height="26.4" fill="white"/>
</clipPath>
</defs>
</svg>
