<svg width="62" height="92" viewBox="0 0 62 92" fill="none" xmlns="http://www.w3.org/2000/svg">
<path d="M16.4023 60.6978C8.02955 60.6978 1.24209 53.9104 1.24209 45.5376C1.24209 37.1649 8.02955 30.3774 16.4023 30.3774C24.775 30.3774 31.5625 37.1649 31.5625 45.5376C31.5625 53.9104 24.775 60.6978 16.4023 60.6978Z" fill="#384C5E"/>
<path d="M16.4025 90.9961C22.5374 90.9961 28.501 89.7966 34.1218 87.4089C39.5369 85.1126 44.4037 81.8338 48.5737 77.6638C52.7436 73.4939 56.0224 68.6271 58.3187 63.212C60.695 57.5911 61.8945 51.6276 61.8945 45.4927H31.5627C31.5627 53.8553 24.7537 60.6643 16.3911 60.6643C8.0284 60.6643 1.23087 53.8553 1.23087 45.4927H-29.101C-29.101 51.6276 -27.9014 57.5911 -25.5137 63.212C-23.2174 68.6271 -19.9386 73.4939 -15.7687 77.6638C-11.5988 81.8338 -6.73195 85.1126 -1.31678 87.4089C4.30404 89.7851 10.2562 90.9961 16.4025 90.9961Z" fill="#2C4255"/>
<path d="M-59.4349 45.492H-29.1031C-29.1031 37.1294 -22.2942 30.3204 -13.9315 30.3204C-5.56881 30.3204 1.22872 37.1294 1.22872 45.492H31.5605C31.5605 39.3571 30.361 33.3936 27.9733 27.7728C25.677 22.3576 22.3982 17.4908 18.2282 13.3209C14.0583 9.15096 9.19153 5.87215 3.77636 3.57584C-1.84446 1.19956 -7.79657 0 -13.9429 0C-20.0892 0 -26.0414 1.19956 -31.6622 3.58727C-37.0774 5.88358 -41.9442 9.16238 -46.1141 13.3323C-50.284 17.5022 -53.5628 22.369 -55.8591 27.7842C-58.2354 33.405 -59.4349 39.3571 -59.4349 45.492Z" fill="#2C4255"/>
</svg>
