<svg width="89" height="92" viewBox="0 0 89 92" fill="none" xmlns="http://www.w3.org/2000/svg">
<path d="M45.4922 60.6979C53.865 60.6979 60.6524 53.9104 60.6524 45.5376C60.6524 37.1649 53.865 30.3774 45.4922 30.3774C37.1195 30.3774 30.332 37.1649 30.332 45.5376C30.332 53.9104 37.1195 60.6979 45.4922 60.6979Z" fill="white" fill-opacity="0.15"/>
<path d="M45.492 90.9961C39.3571 90.9961 33.3936 89.7966 27.7728 87.4089C22.3576 85.1126 17.4908 81.8338 13.3209 77.6638C9.15096 73.4939 5.87215 68.6271 3.57584 63.212C1.19956 57.5911 0 51.6276 0 45.4927H30.3318C30.3318 53.8553 37.1408 60.6643 45.5035 60.6643C53.8661 60.6643 60.6637 53.8553 60.6637 45.4927H90.9955C90.9955 51.6276 89.7959 57.5911 87.4082 63.212C85.1119 68.6271 81.8331 73.4939 77.6632 77.6638C73.4933 81.8338 68.6265 85.1126 63.2113 87.4089C57.5905 89.7851 51.6384 90.9961 45.492 90.9961Z" fill="#2C4255"/>
<path d="M121.328 45.492H90.9957C90.9957 37.1294 84.1867 30.3204 75.8241 30.3204C67.4614 30.3204 60.6639 37.1294 60.6639 45.492H30.332C30.332 39.3571 31.5316 33.3936 33.9193 27.7728C36.2156 22.3576 39.4944 17.4908 43.6643 13.3209C47.8342 9.15096 52.701 5.87215 58.1162 3.57584C63.737 1.19956 69.6892 0 75.8355 0C81.9818 0 87.934 1.19956 93.5548 3.58727C98.9699 5.88358 103.837 9.16238 108.007 13.3323C112.177 17.5022 115.455 22.369 117.752 27.7842C120.128 33.405 121.328 39.3571 121.328 45.492Z" fill="#2C4255"/>
</svg>
