<svg width="28" height="28" viewBox="0 0 28 28" fill="none" xmlns="http://www.w3.org/2000/svg">
<path d="M24.5 1.75H14C13.536 1.75046 13.0912 1.93499 12.7631 2.26307C12.435 2.59116 12.2505 3.03601 12.25 3.5V12.25H3.5C3.03601 12.2505 2.59116 12.435 2.26307 12.7631C1.93499 13.0912 1.75046 13.536 1.75 14V26.25H26.25V3.5C26.2495 3.03603 26.0649 2.59122 25.7368 2.26315C25.4088 1.93508 24.964 1.75053 24.5 1.75ZM7.875 24.5V18.375H11.375V24.5H7.875ZM24.5 24.5H13.125V17.5C13.125 17.2679 13.0328 17.0454 12.8687 16.8813C12.7046 16.7172 12.4821 16.625 12.25 16.625H7C6.76794 16.625 6.54538 16.7172 6.38128 16.8813C6.21719 17.0454 6.125 17.2679 6.125 17.5V24.5H3.5V14H14V3.5H24.5V24.5Z" fill="#64748A"/>
<path d="M17.5 7H15.75V8.75H17.5V7Z" fill="#64748A"/>
<path d="M22.75 7H21V8.75H22.75V7Z" fill="#64748A"/>
<path d="M17.5 12.25H15.75V14H17.5V12.25Z" fill="#64748A"/>
<path d="M22.75 12.25H21V14H22.75V12.25Z" fill="#64748A"/>
<path d="M17.5 17.4996H15.75V19.2496H17.5V17.4996Z" fill="#64748A"/>
<path d="M22.75 17.4996H21V19.2496H22.75V17.4996Z" fill="#64748A"/>
</svg>
