<svg width="28" height="28" viewBox="0 0 28 28" fill="none" xmlns="http://www.w3.org/2000/svg">
<g clip-path="url(#clip0_1281_393)">
<path d="M10.5005 7.875C10.5005 8.80326 10.8692 9.6935 11.5256 10.3499C12.182 11.0063 13.0722 11.375 14.0005 11.375C14.9287 11.375 15.819 11.0063 16.4754 10.3499C17.1317 9.6935 17.5005 8.80326 17.5005 7.875C17.5005 6.94674 17.1317 6.0565 16.4754 5.40013C15.819 4.74375 14.9287 4.375 14.0005 4.375C13.0722 4.375 12.182 4.74375 11.5256 5.40013C10.8692 6.0565 10.5005 6.94674 10.5005 7.875ZM8.75049 18.375C8.75049 16.9826 9.30361 15.6473 10.2882 14.6627C11.2727 13.6781 12.6081 13.125 14.0005 13.125C15.3929 13.125 16.7282 13.6781 17.7128 14.6627C18.6974 15.6473 19.2505 16.9826 19.2505 18.375H8.75049Z" stroke="#64748A" stroke-width="1.8" stroke-linecap="round" stroke-linejoin="round"/>
<path d="M6.99981 10.5V7.875C6.99981 6.01848 7.73731 4.23801 9.05006 2.92525C10.3628 1.6125 12.1433 0.875 13.9998 0.875C15.8563 0.875 17.6368 1.6125 18.9496 2.92525C20.2623 4.23801 20.9998 6.01848 20.9998 7.875V9.625M26.1763 24.8722C26.2547 25.1335 26.2709 25.4095 26.2236 25.6782C26.1764 25.9469 26.0669 26.2009 25.904 26.4198C25.7411 26.6386 25.5293 26.8164 25.2855 26.9388C25.0417 27.0613 24.7726 27.125 24.4998 27.125H3.49981C3.22697 27.125 2.95791 27.0613 2.7141 26.9388C2.47028 26.8164 2.25848 26.6386 2.0956 26.4198C1.93271 26.2009 1.82326 25.9469 1.77599 25.6782C1.72871 25.4095 1.74491 25.1335 1.82331 24.8722L3.39831 19.6222C3.50646 19.2616 3.72798 18.9456 4.02999 18.7209C4.332 18.4962 4.6984 18.3749 5.07481 18.375H22.9248C23.3012 18.3749 23.6676 18.4962 23.9696 18.7209C24.2716 18.9456 24.4932 19.2616 24.6013 19.6222L26.1763 24.8722Z" stroke="#64748A" stroke-width="1.8" stroke-linecap="round" stroke-linejoin="round"/>
<path d="M6.12549 22.75C6.12549 23.2143 6.40199 23.66 6.89432 23.9867C7.38665 24.3133 8.05399 24.5 8.75049 24.5C9.44699 24.5 10.1143 24.3157 10.6067 23.9867C11.099 23.66 11.3755 23.2143 11.3755 22.75C11.3755 22.2857 11.099 21.84 10.6067 21.5133C10.1143 21.1867 9.44699 21 8.75049 21C8.05399 21 7.38665 21.1843 6.89432 21.5133C6.40199 21.84 6.12549 22.2857 6.12549 22.75ZM16.6255 22.75C16.6255 22.9798 16.6932 23.2073 16.825 23.4197C16.9568 23.632 17.1517 23.8245 17.3943 23.9878C17.6382 24.15 17.9275 24.2795 18.246 24.367C18.5645 24.4545 18.9063 24.5 19.2505 24.5C19.5947 24.5 19.9365 24.4545 20.255 24.367C20.5735 24.2795 20.8628 24.15 21.1067 23.9878C21.3505 23.8245 21.5442 23.632 21.676 23.4197C21.8078 23.2073 21.8755 22.9798 21.8755 22.75C21.8755 22.5202 21.8078 22.2927 21.676 22.0803C21.5298 21.8518 21.3355 21.6579 21.1067 21.5122C20.8449 21.3409 20.5574 21.2129 20.255 21.133C19.9365 21.0455 19.5958 21 19.2505 21C18.9052 21 18.5645 21.0455 18.246 21.133C17.9436 21.2129 17.656 21.3409 17.3943 21.5122C17.1655 21.6579 16.9712 21.8518 16.825 22.0803C16.6978 22.2808 16.6288 22.5126 16.6255 22.75ZM24.5005 8.75C24.5005 9.44619 24.2239 10.1139 23.7316 10.6062C23.2394 11.0984 22.5717 11.375 21.8755 11.375C21.6434 11.375 21.4209 11.2828 21.2568 11.1187C21.0927 10.9546 21.0005 10.7321 21.0005 10.5V6.125H21.8755C22.5717 6.125 23.2394 6.40156 23.7316 6.89384C24.2239 7.38613 24.5005 8.05381 24.5005 8.75ZM3.50049 8.75C3.50049 9.44619 3.77705 10.1139 4.26933 10.6062C4.76162 11.0984 5.42929 11.375 6.12549 11.375C6.35755 11.375 6.58011 11.2828 6.74421 11.1187C6.9083 10.9546 7.00049 10.7321 7.00049 10.5V6.125H6.12549C5.42929 6.125 4.76162 6.40156 4.26933 6.89384C3.77705 7.38613 3.50049 8.05381 3.50049 8.75Z" stroke="#64748A" stroke-width="1.8" stroke-linecap="round" stroke-linejoin="round"/>
</g>
<defs>
<clipPath id="clip0_1281_393">
<rect width="28" height="28" fill="white"/>
</clipPath>
</defs>
</svg>
