<svg width="28" height="28" viewBox="0 0 28 28" fill="none" xmlns="http://www.w3.org/2000/svg">
<g clip-path="url(#clip0_1281_4179)">
<path d="M10.5 7.875C10.5 8.80326 10.8687 9.6935 11.5251 10.3499C12.1815 11.0063 13.0717 11.375 14 11.375C14.9283 11.375 15.8185 11.0063 16.4749 10.3499C17.1313 9.6935 17.5 8.80326 17.5 7.875C17.5 6.94674 17.1313 6.0565 16.4749 5.40013C15.8185 4.74375 14.9283 4.375 14 4.375C13.0717 4.375 12.1815 4.74375 11.5251 5.40013C10.8687 6.0565 10.5 6.94674 10.5 7.875ZM8.75 18.375C8.75 16.9826 9.30312 15.6473 10.2877 14.6627C11.2723 13.6781 12.6076 13.125 14 13.125C15.3924 13.125 16.7277 13.6781 17.7123 14.6627C18.6969 15.6473 19.25 16.9826 19.25 18.375H8.75Z" stroke="#93C01F" stroke-width="1.8" stroke-linecap="round" stroke-linejoin="round"/>
<path d="M6.99932 10.5V7.875C6.99932 6.01848 7.73682 4.23801 9.04957 2.92525C10.3623 1.6125 12.1428 0.875 13.9993 0.875C15.8558 0.875 17.6363 1.6125 18.9491 2.92525C20.2618 4.23801 20.9993 6.01848 20.9993 7.875V9.625M26.1758 24.8722C26.2542 25.1335 26.2704 25.4095 26.2231 25.6782C26.1759 25.9469 26.0664 26.2009 25.9035 26.4198C25.7407 26.6386 25.5288 26.8164 25.285 26.9388C25.0412 27.0613 24.7722 27.125 24.4993 27.125H3.49932C3.22649 27.125 2.95742 27.0613 2.71361 26.9388C2.46979 26.8164 2.25799 26.6386 2.09511 26.4198C1.93222 26.2009 1.82277 25.9469 1.7755 25.6782C1.72822 25.4095 1.74443 25.1335 1.82282 24.8722L3.39782 19.6222C3.50598 19.2616 3.7275 18.9456 4.0295 18.7209C4.33151 18.4962 4.69791 18.3749 5.07432 18.375H22.9243C23.3007 18.3749 23.6671 18.4962 23.9691 18.7209C24.2711 18.9456 24.4927 19.2616 24.6008 19.6222L26.1758 24.8722Z" stroke="#93C01F" stroke-width="1.8" stroke-linecap="round" stroke-linejoin="round"/>
<path d="M6.125 22.75C6.125 23.2143 6.4015 23.66 6.89383 23.9867C7.38617 24.3133 8.0535 24.5 8.75 24.5C9.4465 24.5 10.1138 24.3157 10.6062 23.9867C11.0985 23.66 11.375 23.2143 11.375 22.75C11.375 22.2857 11.0985 21.84 10.6062 21.5133C10.1138 21.1867 9.4465 21 8.75 21C8.0535 21 7.38617 21.1843 6.89383 21.5133C6.4015 21.84 6.125 22.2857 6.125 22.75ZM16.625 22.75C16.625 22.9798 16.6927 23.2073 16.8245 23.4197C16.9563 23.632 17.1512 23.8245 17.3938 23.9878C17.6377 24.15 17.927 24.2795 18.2455 24.367C18.564 24.4545 18.9058 24.5 19.25 24.5C19.5942 24.5 19.936 24.4545 20.2545 24.367C20.573 24.2795 20.8623 24.15 21.1062 23.9878C21.35 23.8245 21.5437 23.632 21.6755 23.4197C21.8073 23.2073 21.875 22.9798 21.875 22.75C21.875 22.5202 21.8073 22.2927 21.6755 22.0803C21.5293 21.8518 21.335 21.6579 21.1062 21.5122C20.8444 21.3409 20.5569 21.2129 20.2545 21.133C19.936 21.0455 19.5953 21 19.25 21C18.9047 21 18.564 21.0455 18.2455 21.133C17.9431 21.2129 17.6556 21.3409 17.3938 21.5122C17.165 21.6579 16.9707 21.8518 16.8245 22.0803C16.6973 22.2808 16.6283 22.5126 16.625 22.75ZM24.5 8.75C24.5 9.44619 24.2234 10.1139 23.7312 10.6062C23.2389 11.0984 22.5712 11.375 21.875 11.375C21.6429 11.375 21.4204 11.2828 21.2563 11.1187C21.0922 10.9546 21 10.7321 21 10.5V6.125H21.875C22.5712 6.125 23.2389 6.40156 23.7312 6.89384C24.2234 7.38613 24.5 8.05381 24.5 8.75ZM3.5 8.75C3.5 9.44619 3.77656 10.1139 4.26884 10.6062C4.76113 11.0984 5.42881 11.375 6.125 11.375C6.35706 11.375 6.57962 11.2828 6.74372 11.1187C6.90781 10.9546 7 10.7321 7 10.5V6.125H6.125C5.42881 6.125 4.76113 6.40156 4.26884 6.89384C3.77656 7.38613 3.5 8.05381 3.5 8.75Z" stroke="#93C01F" stroke-width="1.8" stroke-linecap="round" stroke-linejoin="round"/>
</g>
<defs>
<clipPath id="clip0_1281_4179">
<rect width="28" height="28" fill="white"/>
</clipPath>
</defs>
</svg>
