<svg width="90" height="90" viewBox="0 0 90 90" fill="none" xmlns="http://www.w3.org/2000/svg">
<g clip-path="url(#clip0_351_7201)">
<circle cx="45" cy="45" r="45" fill="#EEF2FF"/>
<g filter="url(#filter0_d_351_7201)">
<path d="M22.5 25.3125C22.5 22.9826 24.3888 21.0938 26.7188 21.0938H63.2812C65.6112 21.0938 67.5 22.9826 67.5 25.3125V67.5C67.5 69.8299 65.6112 71.7188 63.2812 71.7188H45L22.5 53.4375V25.3125Z" fill="white"/>
</g>
<path d="M40.7812 53.4375C43.1112 53.4375 45 55.3263 45 57.6562V71.7188L22.5 53.4375H40.7812ZM57.6562 61.875C58.4329 61.875 59.0625 62.5046 59.0625 63.2812C59.0625 64.0579 58.4329 64.6875 57.6562 64.6875H49.2188C48.4421 64.6875 47.8125 64.0579 47.8125 63.2812C47.8125 62.5046 48.4421 61.875 49.2188 61.875H57.6562ZM57.6562 53.4375C58.4329 53.4375 59.0625 54.0671 59.0625 54.8438C59.0625 55.6204 58.4329 56.25 57.6562 56.25H49.2188C48.4421 56.25 47.8125 55.6204 47.8125 54.8438C47.8125 54.0671 48.4421 53.4375 49.2188 53.4375H57.6562ZM57.6562 45C58.4329 45 59.0625 45.6296 59.0625 46.4062C59.0625 47.1829 58.4329 47.8125 57.6562 47.8125H32.3438C31.5671 47.8125 30.9375 47.1829 30.9375 46.4062C30.9375 45.6296 31.5671 45 32.3438 45H57.6562ZM43.5938 36.5625C44.3704 36.5625 45 37.1921 45 37.9688C45 38.7454 44.3704 39.375 43.5938 39.375H32.3438C31.5671 39.375 30.9375 38.7454 30.9375 37.9688C30.9375 37.1921 31.5671 36.5625 32.3438 36.5625H43.5938ZM43.5938 28.125C44.3704 28.125 45 28.7546 45 29.5312C45 30.3079 44.3704 30.9375 43.5938 30.9375H32.3438C31.5671 30.9375 30.9375 30.3079 30.9375 29.5312C30.9375 28.7546 31.5671 28.125 32.3438 28.125H43.5938Z" fill="#E5E7EB"/>
</g>
<defs>
<filter id="filter0_d_351_7201" x="13.5" y="12.0938" width="63" height="68.625" filterUnits="userSpaceOnUse" color-interpolation-filters="sRGB">
<feFlood flood-opacity="0" result="BackgroundImageFix"/>
<feColorMatrix in="SourceAlpha" type="matrix" values="0 0 0 0 0 0 0 0 0 0 0 0 0 0 0 0 0 0 127 0" result="hardAlpha"/>
<feOffset/>
<feGaussianBlur stdDeviation="4.5"/>
<feColorMatrix type="matrix" values="0 0 0 0 0.121569 0 0 0 0 0.121569 0 0 0 0 0.133333 0 0 0 0.1 0"/>
<feBlend mode="normal" in2="BackgroundImageFix" result="effect1_dropShadow_351_7201"/>
<feBlend mode="normal" in="SourceGraphic" in2="effect1_dropShadow_351_7201" result="shape"/>
</filter>
<clipPath id="clip0_351_7201">
<rect width="90" height="90" fill="white"/>
</clipPath>
</defs>
</svg>
