<svg width="16" height="16" viewBox="0 0 16 16" fill="none" xmlns="http://www.w3.org/2000/svg">
<path d="M14.537 6.69425H14V6.66659H7.99998V9.33325H11.7676C11.218 10.8856 9.74098 11.9999 7.99998 11.9999C5.79098 11.9999 3.99998 10.2089 3.99998 7.99992C3.99998 5.79092 5.79098 3.99992 7.99998 3.99992C9.01965 3.99992 9.94731 4.38459 10.6536 5.01292L12.5393 3.12725C11.3486 2.01759 9.75598 1.33325 7.99998 1.33325C4.31831 1.33325 1.33331 4.31825 1.33331 7.99992C1.33331 11.6816 4.31831 14.6666 7.99998 14.6666C11.6816 14.6666 14.6666 11.6816 14.6666 7.99992C14.6666 7.55292 14.6206 7.11659 14.537 6.69425Z" fill="#FFC107"/>
<path d="M2.10199 4.89692L4.29232 6.50325C4.88499 5.03592 6.32031 3.99992 7.99998 3.99992C9.01965 3.99992 9.94731 4.38459 10.6536 5.01292L12.5393 3.12725C11.3486 2.01759 9.75598 1.33325 7.99998 1.33325C5.43931 1.33325 3.21866 2.77892 2.10199 4.89692Z" fill="#FF3D00"/>
<path d="M7.99998 14.6666C9.72198 14.6666 11.2867 14.0076 12.4697 12.9359L10.4063 11.1899C9.737 11.6969 8.90498 11.9999 7.99998 11.9999C6.26598 11.9999 4.79367 10.8942 4.239 9.35125L2.065 11.0262C3.16834 13.1852 5.40898 14.6666 7.99998 14.6666Z" fill="#4CAF50"/>
<path d="M14.537 6.69425H14V6.66659H7.99998V9.33325H11.7676C11.5036 10.0789 11.024 10.7219 10.4053 11.1902C10.4057 11.1899 10.406 11.1902 10.4063 11.1899L12.4697 12.9359C12.3237 13.0686 14.6666 11.3333 14.6666 7.99992C14.6666 7.55292 14.6206 7.11659 14.537 6.69425Z" fill="#1976D2"/>
</svg>
