<svg width="28" height="30" viewBox="0 0 28 30" fill="none" xmlns="http://www.w3.org/2000/svg">
<path d="M14.0005 4.63373C14.9993 4.63381 15.9573 5.03006 16.6636 5.73627C17.37 6.44265 17.7671 7.40135 17.7671 8.40033C17.767 9.39919 17.3699 10.3571 16.6636 11.0634C15.9573 11.7697 14.9994 12.1668 14.0005 12.1669C13.0015 12.1669 12.0428 11.7698 11.3364 11.0634C10.6302 10.3571 10.234 9.39912 10.2339 8.40033C10.2339 7.40135 10.63 6.44265 11.3364 5.73627C12.0428 5.02988 13.0015 4.63373 14.0005 4.63373ZM14.0005 4.70013C11.9541 4.70013 10.3003 6.35394 10.3003 8.40033C10.3005 10.4466 11.9542 12.0995 14.0005 12.0995C16.0466 12.0994 17.6995 10.4465 17.6997 8.40033C17.6997 6.35405 16.0467 4.70031 14.0005 4.70013Z" stroke="#64748A" stroke-width="1.8"/>
<path d="M12.1338 15.8329H15.8662C18.9718 15.8329 21.5 18.3611 21.5 21.4667V23.3329C21.5 24.3852 20.6519 25.2333 19.5996 25.2333H8.40039C7.34811 25.2333 6.5 24.3852 6.5 23.3329V21.4667C6.5 18.3611 9.02818 15.8329 12.1338 15.8329ZM12.1338 15.9003C10.6575 15.9003 9.2412 16.4864 8.19727 17.5302C7.15331 18.5742 6.56641 19.9904 6.56641 21.4667V23.3329C6.56641 24.3527 7.38067 25.1669 8.40039 25.1669H19.5996C20.6193 25.1669 21.4336 24.3527 21.4336 23.3329V21.4667C21.4336 19.9904 20.8467 18.5742 19.8027 17.5302C18.7588 16.4864 17.3425 15.9003 15.8662 15.9003H12.1338ZM8.40039 4.63373C8.41174 4.63377 8.41753 4.63568 8.41992 4.63666C8.42271 4.63782 8.42535 4.63915 8.42676 4.64056C8.42806 4.64194 8.42959 4.64384 8.43066 4.64642C8.43165 4.64881 8.43359 4.65525 8.43359 4.66693C8.43356 4.67786 8.43169 4.68387 8.43066 4.68646C8.42952 4.68921 8.42815 4.69189 8.42676 4.6933C8.42535 4.69471 8.42271 4.69604 8.41992 4.6972C8.41742 4.69821 8.41146 4.70009 8.40039 4.70013C6.354 4.70013 4.7002 6.35394 4.7002 8.40033C4.70037 10.4466 6.35411 12.0995 8.40039 12.0995C8.41182 12.0996 8.41756 12.1025 8.41992 12.1035C8.42271 12.1046 8.42535 12.106 8.42676 12.1074C8.42804 12.1087 8.42961 12.1107 8.43066 12.1132C8.43166 12.1157 8.43359 12.1222 8.43359 12.1337C8.43355 12.1447 8.43167 12.1507 8.43066 12.1533C8.4295 12.156 8.42817 12.1587 8.42676 12.1601C8.42535 12.1615 8.42271 12.1628 8.41992 12.164C8.4174 12.165 8.4114 12.1669 8.40039 12.1669H6.5332C5.05688 12.167 3.6406 12.7529 2.59668 13.7968C1.55277 14.8408 0.966797 16.257 0.966797 17.7333C0.966797 18.753 1.78017 19.5662 2.7998 19.5663C2.81165 19.5663 2.818 19.5693 2.82031 19.5703C2.82295 19.5714 2.82481 19.5728 2.82617 19.5742C2.82753 19.5755 2.82896 19.5773 2.83008 19.58C2.83105 19.5824 2.83295 19.5882 2.83301 19.5995C2.83301 19.6113 2.83105 19.6177 2.83008 19.6201C2.82895 19.6228 2.82754 19.6245 2.82617 19.6259C2.82481 19.6273 2.82296 19.6287 2.82031 19.6298C2.818 19.6308 2.81165 19.6337 2.7998 19.6337C1.74762 19.6336 0.900391 18.7855 0.900391 17.7333C0.900391 15.1288 2.66779 12.9386 5.08496 12.2939L6.4541 11.9286L5.54199 10.8447C4.97596 10.1715 4.63387 9.32778 4.63379 8.40033C4.63379 7.40135 5.02994 6.44265 5.73633 5.73627C6.44271 5.0299 7.40142 4.63373 8.40039 4.63373ZM19.5996 4.63373C20.5986 4.63373 21.5573 5.0299 22.2637 5.73627C22.9701 6.44265 23.3662 7.40135 23.3662 8.40033C23.3661 9.33692 23.0369 10.1746 22.4658 10.8359L21.5283 11.9208L22.9131 12.2929C25.3156 12.9379 27.0996 15.1313 27.0996 17.7333C27.0996 18.7855 26.2524 19.6336 25.2002 19.6337C25.1884 19.6337 25.182 19.6308 25.1797 19.6298C25.177 19.6287 25.1752 19.6273 25.1738 19.6259C25.1725 19.6245 25.171 19.6228 25.1699 19.6201C25.1689 19.6177 25.167 19.6113 25.167 19.5995C25.167 19.5882 25.1689 19.5824 25.1699 19.58C25.171 19.5773 25.1725 19.5756 25.1738 19.5742C25.1752 19.5728 25.1771 19.5714 25.1797 19.5703C25.182 19.5693 25.1884 19.5663 25.2002 19.5663C26.2198 19.5662 27.0332 18.753 27.0332 17.7333C27.0332 16.257 26.4472 14.8408 25.4033 13.7968C24.3594 12.7529 22.9431 12.167 21.4668 12.1669H19.5996C19.5886 12.1669 19.5826 12.165 19.5801 12.164C19.5773 12.1628 19.5747 12.1615 19.5732 12.1601C19.5718 12.1587 19.5705 12.156 19.5693 12.1533C19.5683 12.1507 19.5665 12.1447 19.5664 12.1337C19.5664 12.1222 19.5683 12.1157 19.5693 12.1132C19.5704 12.1107 19.572 12.1087 19.5732 12.1074C19.5747 12.106 19.5773 12.1046 19.5801 12.1035C19.5824 12.1025 19.5882 12.0996 19.5996 12.0995C21.6459 12.0995 23.2996 10.4466 23.2998 8.40033C23.2998 6.35394 21.646 4.70013 19.5996 4.70013C19.5885 4.70009 19.5826 4.69821 19.5801 4.6972C19.5773 4.69604 19.5747 4.69471 19.5732 4.6933C19.5719 4.69189 19.5705 4.68921 19.5693 4.68646C19.5683 4.68387 19.5664 4.67786 19.5664 4.66693C19.5664 4.65524 19.5684 4.64881 19.5693 4.64642C19.5704 4.64384 19.5719 4.64194 19.5732 4.64056C19.5747 4.63915 19.5773 4.63782 19.5801 4.63666C19.5825 4.63568 19.5883 4.63377 19.5996 4.63373Z" fill="black" stroke="#64748A" stroke-width="1.8"/>
</svg>
