<svg width="28" height="30" viewBox="0 0 28 30" fill="none" xmlns="http://www.w3.org/2000/svg">
<path d="M13.9997 13.0667C12.762 13.0667 11.575 12.575 10.6998 11.6998C9.82467 10.8247 9.33301 9.63768 9.33301 8.4C9.33301 7.16233 9.82467 5.97534 10.6998 5.10017C11.575 4.225 12.762 3.73334 13.9997 3.73334C15.2374 3.73334 16.4243 4.225 17.2995 5.10017C18.1747 5.97534 18.6663 7.16233 18.6663 8.4C18.6663 9.63768 18.1747 10.8247 17.2995 11.6998C16.4243 12.575 15.2374 13.0667 13.9997 13.0667ZM13.9997 5.6C12.4503 5.6 11.1997 6.85067 11.1997 8.4C11.1997 9.94934 12.4503 11.2 13.9997 11.2C15.549 11.2 16.7997 9.94934 16.7997 8.4C16.7997 6.85067 15.549 5.6 13.9997 5.6Z" fill="#93C01F"/>
<path d="M25.2 20.5333C24.6773 20.5333 24.2667 20.1227 24.2667 19.6C24.2667 19.0773 24.6773 18.6667 25.2 18.6667C25.7227 18.6667 26.1333 18.256 26.1333 17.7333C26.1333 16.4957 25.6417 15.3087 24.7665 14.4335C23.8913 13.5583 22.7043 13.0667 21.4667 13.0667H19.6C19.0773 13.0667 18.6667 12.656 18.6667 12.1333C18.6667 11.6107 19.0773 11.2 19.6 11.2C21.1493 11.2 22.4 9.94934 22.4 8.4C22.4 6.85067 21.1493 5.6 19.6 5.6C19.0773 5.6 18.6667 5.18934 18.6667 4.66667C18.6667 4.144 19.0773 3.73334 19.6 3.73334C20.8377 3.73334 22.0247 4.225 22.8998 5.10017C23.775 5.97534 24.2667 7.16233 24.2667 8.4C24.2667 9.55734 23.856 10.6027 23.1467 11.424C25.928 12.1707 28 14.7093 28 17.7333C28 19.2827 26.7493 20.5333 25.2 20.5333ZM2.8 20.5333C1.25067 20.5333 0 19.2827 0 17.7333C0 14.7093 2.05333 12.1707 4.85333 11.424C4.16267 10.6027 3.73333 9.55734 3.73333 8.4C3.73333 7.16233 4.225 5.97534 5.10017 5.10017C5.97534 4.225 7.16232 3.73334 8.4 3.73334C8.92267 3.73334 9.33333 4.144 9.33333 4.66667C9.33333 5.18934 8.92267 5.6 8.4 5.6C6.85067 5.6 5.6 6.85067 5.6 8.4C5.6 9.94934 6.85067 11.2 8.4 11.2C8.92267 11.2 9.33333 11.6107 9.33333 12.1333C9.33333 12.656 8.92267 13.0667 8.4 13.0667H6.53333C5.29566 13.0667 4.10867 13.5583 3.2335 14.4335C2.35833 15.3087 1.86667 16.4957 1.86667 17.7333C1.86667 18.256 2.27733 18.6667 2.8 18.6667C3.32267 18.6667 3.73333 19.0773 3.73333 19.6C3.73333 20.1227 3.32267 20.5333 2.8 20.5333ZM19.6 26.1333H8.4C6.85067 26.1333 5.6 24.8827 5.6 23.3333V21.4667C5.6 17.864 8.53067 14.9333 12.1333 14.9333H15.8667C19.4693 14.9333 22.4 17.864 22.4 21.4667V23.3333C22.4 24.8827 21.1493 26.1333 19.6 26.1333ZM12.1333 16.8C10.8957 16.8 9.70867 17.2917 8.8335 18.1668C7.95833 19.042 7.46667 20.229 7.46667 21.4667V23.3333C7.46667 23.856 7.87733 24.2667 8.4 24.2667H19.6C20.1227 24.2667 20.5333 23.856 20.5333 23.3333V21.4667C20.5333 20.229 20.0417 19.042 19.1665 18.1668C18.2913 17.2917 17.1043 16.8 15.8667 16.8H12.1333Z" fill="#93C01F"/>
</svg>
