<svg width="16" height="16" viewBox="0 0 16 16" fill="none" xmlns="http://www.w3.org/2000/svg">
<path opacity="0.5" d="M12.8479 10.758C13.8779 9.72732 14.3933 9.21266 14.5846 8.54399C14.7766 7.87532 14.6126 7.16532 14.2846 5.74599L14.0959 4.92732C13.8206 3.73266 13.6826 3.13532 13.2739 2.72599C12.8653 2.31666 12.2673 2.17932 11.0726 1.90399L10.2539 1.71466C8.83393 1.38732 8.12459 1.22332 7.45593 1.41466C6.78726 1.60666 6.27259 2.12199 5.24259 3.15199L4.02259 4.37199C2.22859 6.16532 1.33326 7.06132 1.33326 8.17466C1.33326 9.28866 2.22926 10.1847 4.02193 11.9773C5.81526 13.7707 6.71126 14.6667 7.82526 14.6667C8.93859 14.6667 9.83526 13.7707 11.6279 11.978L12.8479 10.758Z" stroke="black"/>
<path d="M5.74007 10.2602C5.35007 9.86886 5.29741 9.28886 5.62274 8.96286C5.94807 8.63686 6.52874 8.6902 6.91941 9.08086C7.30941 9.47153 7.89007 9.5242 8.21541 9.19886C8.54074 8.87353 8.48807 8.29286 8.09741 7.90286M8.09741 7.90286L8.33341 7.66686M8.09741 7.90286C7.87674 7.68153 7.59541 7.56953 7.33341 7.57153M5.50474 10.4955L5.74074 10.2595C6.00741 10.5269 6.36407 10.6362 6.66674 10.5735" stroke="black" stroke-linecap="round"/>
<path d="M9.31903 6.86218C8.79833 6.34148 8.79833 5.49726 9.31903 4.97656C9.83973 4.45586 10.684 4.45586 11.2047 4.97656C11.7254 5.49726 11.7254 6.34148 11.2047 6.86218C10.684 7.38288 9.83973 7.38288 9.31903 6.86218Z" stroke="black"/>
</svg>
