<svg width="16" height="16" viewBox="0 0 16 16" fill="none" xmlns="http://www.w3.org/2000/svg">
<path d="M13.4996 8.38008C13.4996 8.25508 13.4996 8.13008 13.4996 8.00008C13.4996 7.87008 13.4996 7.74508 13.4996 7.61508L14.4596 6.77508C14.6366 6.61911 14.7527 6.40559 14.7875 6.17228C14.8223 5.93897 14.7734 5.70088 14.6496 5.50008L13.4696 3.50008C13.382 3.34821 13.2559 3.22207 13.1041 3.13431C12.9522 3.04655 12.78 3.00026 12.6046 3.00008C12.496 2.99925 12.3879 3.01614 12.2846 3.05008L11.0696 3.46008C10.8599 3.32068 10.6411 3.19541 10.4146 3.08508L10.1596 1.82508C10.1139 1.59488 9.98868 1.3881 9.80587 1.24093C9.62305 1.09376 9.39429 1.01558 9.15964 1.02008H6.81964C6.58499 1.01558 6.35623 1.09376 6.17341 1.24093C5.99059 1.3881 5.86536 1.59488 5.81964 1.82508L5.56464 3.08508C5.3366 3.19538 5.11612 3.32066 4.90464 3.46008L3.71464 3.03008C3.61029 3.00289 3.50222 2.99276 3.39464 3.00008C3.21928 3.00026 3.04704 3.04655 2.89522 3.13431C2.7434 3.22207 2.61732 3.34821 2.52964 3.50008L1.34964 5.50008C1.23293 5.70058 1.18956 5.93541 1.22696 6.16436C1.26436 6.39332 1.3802 6.60214 1.55464 6.75508L2.49964 7.62008C2.49964 7.74508 2.49964 7.87008 2.49964 8.00008C2.49964 8.13008 2.49964 8.25508 2.49964 8.38508L1.55464 9.22508C1.37527 9.37908 1.25627 9.59165 1.21874 9.82505C1.18121 10.0585 1.22759 10.2976 1.34964 10.5001L2.52964 12.5001C2.61732 12.6519 2.7434 12.7781 2.89522 12.8659C3.04704 12.9536 3.21928 12.9999 3.39464 13.0001C3.50331 13.0009 3.6114 12.984 3.71464 12.9501L4.92964 12.5401C5.13941 12.6795 5.35823 12.8048 5.58464 12.9151L5.83964 14.1751C5.88536 14.4053 6.01059 14.6121 6.19341 14.7592C6.37623 14.9064 6.60499 14.9846 6.83964 14.9801H9.19964C9.43429 14.9846 9.66305 14.9064 9.84587 14.7592C10.0287 14.6121 10.1539 14.4053 10.1996 14.1751L10.4546 12.9151C10.6827 12.8048 10.9032 12.6795 11.1146 12.5401L12.3246 12.9501C12.4279 12.984 12.536 13.0009 12.6446 13.0001C12.82 12.9999 12.9922 12.9536 13.1441 12.8659C13.2959 12.7781 13.422 12.6519 13.5096 12.5001L14.6496 10.5001C14.7663 10.2996 14.8097 10.0648 14.7723 9.8358C14.7349 9.60685 14.6191 9.39802 14.4446 9.24508L13.4996 8.38008ZM12.6046 12.0001L10.8896 11.4201C10.4882 11.7601 10.0293 12.026 9.53464 12.2051L9.17964 14.0001H6.81964L6.46464 12.2251C5.97385 12.0409 5.5175 11.7755 5.11464 11.4401L3.39464 12.0001L2.21464 10.0001L3.57464 8.80008C3.48219 8.28251 3.48219 7.75265 3.57464 7.23508L2.21464 6.00008L3.39464 4.00008L5.10964 4.58008C5.51111 4.24003 5.96994 3.97421 6.46464 3.79508L6.81964 2.00008H9.17964L9.53464 3.77508C10.0254 3.95929 10.4818 4.22465 10.8846 4.56008L12.6046 4.00008L13.7846 6.00008L12.4246 7.20008C12.5171 7.71765 12.5171 8.24751 12.4246 8.76508L13.7846 10.0001L12.6046 12.0001Z" fill="white"/>
<path d="M7.99964 11.0001C7.40629 11.0001 6.82627 10.8241 6.33293 10.4945C5.83958 10.1648 5.45506 9.69631 5.228 9.14813C5.00094 8.59995 4.94153 7.99675 5.05728 7.41481C5.17304 6.83287 5.45876 6.29832 5.87832 5.87876C6.29788 5.4592 6.83242 5.17348 7.41437 5.05773C7.99631 4.94197 8.59951 5.00138 9.14769 5.22844C9.69587 5.45551 10.1644 5.84002 10.494 6.33337C10.8237 6.82672 10.9996 7.40674 10.9996 8.00008C11.0036 8.39516 10.9288 8.78707 10.7794 9.15286C10.6301 9.51865 10.4093 9.85096 10.1299 10.1303C9.85052 10.4097 9.51821 10.6305 9.15242 10.7799C8.78663 10.9292 8.39472 11.0041 7.99964 11.0001ZM7.99964 6.00008C7.73531 5.99392 7.47248 6.04145 7.22705 6.13978C6.98161 6.23811 6.75867 6.3852 6.57171 6.57216C6.38476 6.75912 6.23766 6.98205 6.13933 7.22749C6.041 7.47292 5.99348 7.73575 5.99964 8.00008C5.99348 8.26441 6.041 8.52724 6.13933 8.77267C6.23766 9.01811 6.38476 9.24105 6.57171 9.42801C6.75867 9.61496 6.98161 9.76206 7.22705 9.86039C7.47248 9.95872 7.73531 10.0062 7.99964 10.0001C8.26397 10.0062 8.52679 9.95872 8.77223 9.86039C9.01766 9.76206 9.2406 9.61496 9.42756 9.42801C9.61452 9.24105 9.76161 9.01811 9.85994 8.77267C9.95827 8.52724 10.0058 8.26441 9.99964 8.00008C10.0058 7.73575 9.95827 7.47292 9.85994 7.22749C9.76161 6.98205 9.61452 6.75912 9.42756 6.57216C9.2406 6.3852 9.01766 6.23811 8.77223 6.13978C8.52679 6.04145 8.26397 5.99392 7.99964 6.00008Z" fill="white"/>
</svg>
