<svg width="28" height="28" viewBox="0 0 28 28" fill="none" xmlns="http://www.w3.org/2000/svg">
<path d="M8.75 14C9.7165 14 10.5 13.2165 10.5 12.25C10.5 11.2835 9.7165 10.5 8.75 10.5C7.7835 10.5 7 11.2835 7 12.25C7 13.2165 7.7835 14 8.75 14Z" fill="#64748A"/>
<path d="M14 26.25C13.8848 26.2507 13.7707 26.2286 13.6641 26.1851C13.5575 26.1415 13.4605 26.0773 13.3787 25.9963L4.01625 16.625C3.68761 16.2983 3.50195 15.8546 3.5 15.3913V8.75C3.5 8.28587 3.68437 7.84075 4.01256 7.51256C4.34075 7.18437 4.78587 7 5.25 7H11.8913C12.3546 7.00195 12.7983 7.18761 13.125 7.51625L22.4963 16.8788C22.5783 16.9601 22.6434 17.0569 22.6878 17.1635C22.7322 17.2701 22.7551 17.3845 22.7551 17.5C22.7551 17.6155 22.7322 17.7299 22.6878 17.8365C22.6434 17.9431 22.5783 18.0399 22.4963 18.1213L14.6212 25.9963C14.5395 26.0773 14.4425 26.1415 14.3359 26.1851C14.2293 26.2286 14.1152 26.2507 14 26.25ZM5.25 8.75V15.3913L14 24.1413L20.6413 17.5L11.8913 8.75H5.25Z" fill="#64748A"/>
<path d="M24.2463 11.6287L14.875 2.26625C14.5483 1.93761 14.1046 1.75195 13.6413 1.75H7C6.53587 1.75 6.09075 1.93437 5.76256 2.26256C5.43437 2.59075 5.25 3.03587 5.25 3.5V5.25H7V3.5H13.6413L22.3913 12.25L21.2537 13.3787L22.4963 14.6212L24.2463 12.8713C24.3283 12.7899 24.3934 12.6931 24.4378 12.5865C24.4822 12.4799 24.5051 12.3655 24.5051 12.25C24.5051 12.1345 24.4822 12.0201 24.4378 11.9135C24.3934 11.8069 24.3283 11.7101 24.2463 11.6287Z" fill="#64748A"/>
</svg>
