<svg width="16" height="16" viewBox="0 0 16 16" fill="none" xmlns="http://www.w3.org/2000/svg">
<path d="M7 12.3994L7.27734 12.585L9.5 14.0664L8.72266 13.5479L7 12.3994ZM7 12.3994L6.72266 12.585L4.5 14.0664L5.27734 13.5479L7 12.3994ZM6.54199 1.52637C6.25054 1.56034 5.96235 1.62752 5.68262 1.72559C4.93703 1.98696 4.28549 2.46335 3.81055 3.09473C3.3356 3.72619 3.05799 4.48454 3.01367 5.27344C2.96936 6.06231 3.16032 6.84668 3.56152 7.52734C3.96276 8.20801 4.55689 8.75439 5.26855 9.09766C5.98025 9.44092 6.77805 9.56581 7.56055 9.45605C7.94745 9.40175 8.32163 9.29023 8.67285 9.12891C8.14904 9.37248 7.57859 9.50142 7 9.50098C6.3835 9.50045 5.77549 9.35587 5.22461 9.0791L4.5 8.71484V8.62109L4.33301 8.47266C3.6648 7.87568 3.21656 7.07083 3.06055 6.18848C2.9046 5.30619 3.05068 4.39727 3.47363 3.60742C3.89663 2.81749 4.57267 2.19225 5.39355 1.83301C5.76124 1.67213 6.14868 1.57128 6.54199 1.52637ZM6.54199 1.52637C6.63195 1.51609 6.72206 1.50902 6.8125 1.50488C6.72217 1.50924 6.63188 1.51589 6.54199 1.52637ZM10.7168 6.97559C10.489 7.55004 10.1327 8.0672 9.66797 8.48145L9.5 8.63086V8.71973L8.77637 9.08203C8.74978 9.09534 8.72216 9.10645 8.69531 9.11914C9.04587 8.95551 9.37313 8.74169 9.66504 8.48145C10.1299 8.06698 10.4871 7.54999 10.7158 6.97559H10.7168ZM11.8555 2.73535L11.9775 2.96582L12.2363 2.99707L12.8496 3.07129L12.416 3.46289L12.2158 3.64258L12.2559 3.9082L12.3438 4.5L11.7656 4.13867L11.5 3.97363L11.2354 4.13867L10.6562 4.5L10.7451 3.9082L10.7842 3.64258L10.585 3.46289L10.1533 3.07422L10.8086 2.99707L11.0771 2.96582L11.1973 2.72461L11.5127 2.0918L11.8555 2.73535ZM7.17578 1.50488C7.25496 1.50847 7.33408 1.51317 7.41309 1.52148C7.33412 1.51338 7.25496 1.50827 7.17578 1.50488Z" fill="#1C3C59" stroke="#1C3C59"/>
</svg>
